<?xml version="1.0" standalone="no"?><!DOCTYPE svg PUBLIC "-//W3C//DTD SVG 1.1//EN" "http://www.w3.org/Graphics/SVG/1.1/DTD/svg11.dtd"><svg t="1659510033755" class="icon" viewBox="0 0 1024 1024" version="1.1" xmlns="http://www.w3.org/2000/svg" p-id="2356" xmlns:xlink="http://www.w3.org/1999/xlink" width="64" height="64"><defs><style type="text/css">@font-face { font-family: feedback-iconfont; src: url("//at.alicdn.com/t/font_1031158_u69w8yhxdu.woff2?t=1630033759944") format("woff2"), url("//at.alicdn.com/t/font_1031158_u69w8yhxdu.woff?t=1630033759944") format("woff"), url("//at.alicdn.com/t/font_1031158_u69w8yhxdu.ttf?t=1630033759944") format("truetype"); }
</style></defs><path d="M751.5 448.2m-122.3 0a122.3 122.3 0 1 0 244.6 0 122.3 122.3 0 1 0-244.6 0Z" fill="#A4CBDF" p-id="2357"></path><path d="M751.5 590.5c-78.5 0-142.3-63.9-142.3-142.3S673 305.9 751.5 305.9c78.5 0 142.3 63.9 142.3 142.3S830 590.5 751.5 590.5z m0-244.6c-56.4 0-102.3 45.9-102.3 102.3s45.9 102.3 102.3 102.3 102.3-45.9 102.3-102.3-45.9-102.3-102.3-102.3zM751.5 288.3c-8.5 0-15.4-6.9-15.4-15.4v-72.6c0-8.5 6.9-15.4 15.4-15.4s15.4 6.9 15.4 15.4v72.6c0 8.5-7 15.4-15.4 15.4zM638.4 335.1c-6 6-15.8 6-21.7 0l-51.3-51.3c-6-6-6-15.8 0-21.7 6-6 15.8-6 21.7 0l51.3 51.3c6 6 6 15.7 0 21.7zM591.6 448.2c0 8.5-6.9 15.4-15.4 15.4h-72.6c-8.5 0-15.4-6.9-15.4-15.4s6.9-15.4 15.4-15.4h72.6c8.4 0 15.4 7 15.4 15.4zM638.4 561.3c6 6 6 15.8 0 21.7l-51.3 51.3c-6 6-15.8 6-21.7 0-6-6-6-15.8 0-21.7l51.3-51.3c5.9-6 15.7-6 21.7 0zM751.5 608.1c8.5 0 15.4 6.9 15.4 15.4v72.6c0 8.5-6.9 15.4-15.4 15.4s-15.4-6.9-15.4-15.4v-72.6c0-8.4 6.9-15.4 15.4-15.4zM864.6 561.3c6-6 15.8-6 21.7 0l51.3 51.3c6 6 6 15.8 0 21.7-6 6-15.8 6-21.7 0L864.6 583c-6-5.9-6-15.7 0-21.7zM911.4 448.2c0-8.5 6.9-15.4 15.4-15.4h72.6c8.5 0 15.4 6.9 15.4 15.4s-6.9 15.4-15.4 15.4h-72.6c-8.5 0-15.4-6.9-15.4-15.4zM864.6 335.1c-6-6-6-15.8 0-21.7l51.3-51.3c6-6 15.8-6 21.7 0 6 6 6 15.8 0 21.7l-51.3 51.3c-6 6-15.7 6-21.7 0z" fill="#A4CBDF" p-id="2358"></path><path d="M701 518.9h-33.4c0-111-90-201-201-201s-201 90-201 201h-38.2c-81.3 0-147.9 66.6-147.9 147.9 0 81.3 66.6 147.9 147.9 147.9H701c81.3 0 147.9-66.6 147.9-147.9 0-81.4-66.6-147.9-147.9-147.9z" fill="#A4CBDF" p-id="2359"></path><path d="M701 834.7H227.5c-44.7 0-86.8-17.5-118.6-49.3-31.8-31.8-49.3-73.9-49.3-118.6 0-44.7 17.5-86.8 49.3-118.6 31.8-31.8 73.9-49.3 118.6-49.3h19.1c4.6-51.5 26.8-99.3 63.8-136.2C352.1 321 407.6 298 466.6 298s114.5 23 156.2 64.7c37 37 59.2 84.8 63.8 136.2H701c44.7 0 86.8 17.5 118.6 49.3 31.8 31.8 49.3 73.9 49.3 118.6 0 44.7-17.5 86.8-49.3 118.6-31.8 31.8-73.9 49.3-118.6 49.3zM227.5 538.9c-34 0-66.1 13.3-90.3 37.6s-37.6 56.3-37.6 90.3 13.3 66.1 37.6 90.3c24.2 24.2 56.3 37.6 90.3 37.6H701c34 0 66.1-13.3 90.3-37.6 24.2-24.2 37.6-56.3 37.6-90.3s-13.3-66.1-37.6-90.3-56.3-37.6-90.3-37.6h-53.4v-20c0-99.8-81.2-181-181-181s-181 81.2-181 181v20h-58.1z" fill="#A4CBDF" p-id="2360"></path></svg>