<?xml version="1.0" standalone="no"?><!DOCTYPE svg PUBLIC "-//W3C//DTD SVG 1.1//EN" "http://www.w3.org/Graphics/SVG/1.1/DTD/svg11.dtd"><svg t="1659504353070" class="icon" viewBox="0 0 1130 1024" version="1.1" xmlns="http://www.w3.org/2000/svg" p-id="6608" xmlns:xlink="http://www.w3.org/1999/xlink" width="70.625" height="64"><defs><style type="text/css">@font-face { font-family: feedback-iconfont; src: url("//at.alicdn.com/t/font_1031158_u69w8yhxdu.woff2?t=1630033759944") format("woff2"), url("//at.alicdn.com/t/font_1031158_u69w8yhxdu.woff?t=1630033759944") format("woff"), url("//at.alicdn.com/t/font_1031158_u69w8yhxdu.ttf?t=1630033759944") format("truetype"); }
</style></defs><path d="M1069.258034 815.863329 53.632402 815.863329C25.572237 815.863329 2.844768 793.110471 2.844768 765.075705 2.844768 737.040929 25.572237 714.288071 53.632402 714.288071L1069.258034 714.288071C1097.2928 714.288071 1120.020269 737.040929 1120.020269 765.075705 1120.020269 793.110471 1097.2928 815.863329 1069.258034 815.863329L1069.258034 815.863329ZM1069.258034 612.738201 53.632402 612.738201C25.572237 612.738201 2.844768 589.985342 2.844768 561.950576 2.844768 533.915801 25.572237 511.162942 53.632402 511.162942L1069.258034 511.162942C1097.2928 511.162942 1120.020269 533.915801 1120.020269 561.950576 1120.020269 589.985342 1097.2928 612.738201 1069.258034 612.738201L1069.258034 612.738201ZM815.345272 308.037814C774.715172 308.037814 737.056146 320.277638 705.288479 340.821231 674.028697 205.802314 553.611226 104.912695 409.095024 104.912695 240.810214 104.912695 104.394637 241.328262 104.394637 409.613082L2.844768 409.613082C2.844768 185.233331 184.715274 3.362826 409.095024 3.362826 561.559485 3.362826 694.216781 87.467142 763.719651 211.693683 780.581142 208.798787 797.645786 206.487954 815.345272 206.487954 947.951779 206.487954 1060.44638 291.354079 1102.320784 409.613082L991.070476 409.613082C955.925437 348.947255 890.485578 308.037814 815.345272 308.037814L815.345272 308.037814ZM53.632402 917.413199 1069.258034 917.413199C1097.2928 917.413199 1120.020269 940.166058 1120.020269 968.200824 1120.020269 996.235599 1097.2928 1018.988458 1069.258034 1018.988458L53.632402 1018.988458C25.572237 1018.988458 2.844768 996.235599 2.844768 968.200824 2.844768 940.166058 25.572237 917.413199 53.632402 917.413199L53.632402 917.413199Z" p-id="6609" fill="#A4CBDF"></path></svg>