<?xml version="1.0" standalone="no"?><!DOCTYPE svg PUBLIC "-//W3C//DTD SVG 1.1//EN" "http://www.w3.org/Graphics/SVG/1.1/DTD/svg11.dtd"><svg t="1659504243987" class="icon" viewBox="0 0 1024 1024" version="1.1" xmlns="http://www.w3.org/2000/svg" p-id="2387" width="64" height="64" xmlns:xlink="http://www.w3.org/1999/xlink"><defs><style type="text/css">@font-face { font-family: feedback-iconfont; src: url("//at.alicdn.com/t/font_1031158_u69w8yhxdu.woff2?t=1630033759944") format("woff2"), url("//at.alicdn.com/t/font_1031158_u69w8yhxdu.woff?t=1630033759944") format("woff"), url("//at.alicdn.com/t/font_1031158_u69w8yhxdu.ttf?t=1630033759944") format("truetype"); }
</style></defs><path d="M512 196.608c19.456 0 35.328-15.36 35.328-35.84v-47.104c0-19.968-15.872-35.84-35.328-35.84s-35.328 15.36-35.328 35.84v47.104c0 19.968 15.872 35.84 35.328 35.84zM774.144 287.232l33.28-33.28c13.824-13.824 14.336-36.352 0.512-50.176s-35.84-13.824-50.176 0.512l-33.28 33.28c-13.824 13.824-14.336 36.352-0.512 50.176 13.312 13.824 35.84 13.824 50.176-0.512zM173.056 462.848h-47.104c-19.968 0-35.84 15.872-35.84 35.328s15.36 35.328 35.84 35.328h47.104c19.968 0 35.84-15.872 35.84-35.328s-15.36-35.328-35.84-35.328zM246.272 712.704l-33.28 33.28c-13.824 13.824-14.336 36.352-0.512 50.176s35.84 13.824 50.176-0.512l33.28-33.28c13.824-13.824 14.336-36.352 0.512-50.176-13.824-13.824-35.84-13.824-50.176 0.512zM248.832 281.6c13.824 13.824 36.352 14.336 50.176 0.512s13.824-35.84-0.512-50.176l-33.28-33.28c-13.824-13.824-36.352-14.336-50.176-0.512s-13.824 35.84 0.512 50.176l33.28 33.28zM510.464 799.744c-19.456 0-35.328 15.36-35.328 35.84v47.104c0 19.968 15.872 35.84 35.328 35.84s35.328-15.36 35.328-35.84v-47.104c0-19.456-15.872-35.84-35.328-35.84zM770.56 712.192c-13.824-13.824-36.352-14.336-50.176-0.512s-13.824 35.84 0.512 50.176l33.28 33.28c13.824 13.824 36.352 14.336 50.176 0.512s13.824-35.84-0.512-50.176l-33.28-33.28zM894.464 466.432h-47.104c-19.968 0-35.84 15.872-35.84 35.328s15.36 35.328 35.84 35.328h47.104c19.968 0 35.84-15.872 35.84-35.328s-15.36-35.328-35.84-35.328z" p-id="2388" fill="#A4CBDF"></path><path d="M509.44 500.224m-240.64 0a240.64 240.64 0 1 0 481.28 0 240.64 240.64 0 1 0-481.28 0Z" p-id="2389" fill="#A4CBDF"></path></svg>